<svg xmlns="http://www.w3.org/2000/svg" viewBox="0 0 512 512" width="512" height="512">
  <rect width="512" height="512" rx="112" fill="#03141f"/>
  <!-- Shield -->
  <path d="M256 96 132 148v124c0 92 62 158 124 184 62-26 124-92 124-184V148L256 96Z"
        fill="#0e7490" fill-opacity="0.28" stroke="#22d3ee" stroke-width="22" stroke-linejoin="round"/>
  <!-- Three waves -->
  <path d="M156 232c26-36 56-36 82 0s56 36 82 0 56-36 82 0" fill="none" stroke="#22d3ee" stroke-width="24" stroke-linecap="round"/>
  <path d="M156 302c26-36 56-36 82 0s56 36 82 0 56-36 82 0" fill="none" stroke="#22d3ee" stroke-width="24" stroke-linecap="round"/>
  <path d="M156 372c26-36 56-36 82 0s56 36 82 0 56-36 82 0" fill="none" stroke="#67e8f9" stroke-width="24" stroke-linecap="round" opacity="0.55"/>
</svg>
